<svg xmlns="http://www.w3.org/2000/svg" width="137" height="36" viewBox="0 0 137 36" fill="none" class="text-darkest-inverted"><g><g><path d="M26.9277 4.31656C28.1056 4.31656 29.0604 3.35027 29.0604 2.15828C29.0604 0.966296 28.1056 0 26.9277 0C25.7499 0 24.795 0.966296 24.795 2.15828C24.795 3.35027 25.7499 4.31656 26.9277 4.31656Z" fill="#ffffff"/><path d="M76.1746 6.28027C69.8135 6.28027 64.4043 11.7955 64.4043 18.3077C64.4043 24.8609 69.8504 30.3724 76.1746 30.335C82.5357 30.335 87.9043 24.8609 87.9043 18.3077C87.9043 11.7544 82.5726 6.28027 76.1746 6.28027ZM76.1746 8.74848C81.1262 8.74848 85.2772 13.1435 85.2772 18.3077C85.2772 23.5129 81.1262 27.9042 76.1746 27.9042C71.2229 27.9042 67.0351 23.5129 67.0351 18.3077C67.0351 13.1435 71.2229 8.74848 76.1746 8.74848Z" fill="#ffffff"/><path d="M53.3203 6.70595H55.9474V29.9467H53.3203V6.70595Z" fill="#ffffff"/><path d="M101.386 9.2116H93.6562V6.70605H111.71V9.2116H103.976V29.9468H101.349L101.386 9.2116Z" fill="#ffffff"/><path d="M116.772 29.9468L125.494 9.94348L134.143 29.9468H136.999L127.439 8.01671C127.096 7.20642 126.332 6.70605 125.458 6.70605C124.62 6.70605 123.819 7.20642 123.476 8.01671L113.916 29.9468H116.772Z" fill="#ffffff"/><path d="M31.4587 32.6466C31.4587 33.8386 30.5039 34.8048 29.326 34.8048C28.1482 34.8048 27.1934 33.8386 27.1934 32.6466C27.1934 31.4546 28.1482 30.4883 29.326 30.4883C30.5039 30.4883 31.4587 31.4546 31.4587 32.6466Z" fill="#ffffff"/><path d="M27.5356 9.71187C28.5239 9.71187 29.3251 8.90106 29.3251 7.90086C29.3251 6.90066 28.5239 6.08984 27.5356 6.08984C26.5473 6.08984 25.7461 6.90066 25.7461 7.90086C25.7461 8.90106 26.5473 9.71187 27.5356 9.71187Z" fill="#ffffff"/><path d="M34.0849 8.59617C34.0849 9.59637 33.2837 10.4072 32.2954 10.4072C31.3071 10.4072 30.5059 9.59637 30.5059 8.59617C30.5059 7.59598 31.3071 6.78516 32.2954 6.78516C33.2837 6.78516 34.0849 7.59598 34.0849 8.59617Z" fill="#ffffff"/><path d="M26.9282 14.3011C27.7698 14.3011 28.452 13.6107 28.452 12.759C28.452 11.9072 27.7698 11.2168 26.9282 11.2168C26.0866 11.2168 25.4043 11.9072 25.4043 12.759C25.4043 13.6107 26.0866 14.3011 26.9282 14.3011Z" fill="#ffffff"/><path d="M33.2118 13.4123C33.2118 14.264 32.5295 14.9544 31.6879 14.9544C30.8463 14.9544 30.1641 14.264 30.1641 13.4123C30.1641 12.5606 30.8463 11.8701 31.6879 11.8701C32.5295 11.8701 33.2118 12.5606 33.2118 13.4123Z" fill="#ffffff"/><path d="M35.4946 16.4593C36.3362 16.4593 37.0184 15.7689 37.0184 14.9172C37.0184 14.0655 36.3362 13.375 35.4946 13.375C34.653 13.375 33.9707 14.0655 33.9707 14.9172C33.9707 15.7689 34.653 16.4593 35.4946 16.4593Z" fill="#ffffff"/><path d="M31.6093 17.307C31.6093 18.0515 31.013 18.655 30.2773 18.655C29.5417 18.655 28.9453 18.0515 28.9453 17.307C28.9453 16.5625 29.5417 15.959 30.2773 15.959C31.013 15.959 31.6093 16.5625 31.6093 17.307Z" fill="#ffffff"/><path d="M25.5175 17.9977C26.2532 17.9977 26.8495 17.3942 26.8495 16.6498C26.8495 15.9053 26.2532 15.3018 25.5175 15.3018C24.7819 15.3018 24.1855 15.9053 24.1855 16.6498C24.1855 17.3942 24.7819 17.9977 25.5175 17.9977Z" fill="#ffffff"/><path d="M35.4589 18.808C35.4589 19.5524 34.8626 20.1559 34.1269 20.1559C33.3913 20.1559 32.7949 19.5524 32.7949 18.808C32.7949 18.0635 33.3913 17.46 34.1269 17.46C34.8626 17.46 35.4589 18.0635 35.4589 18.808Z" fill="#ffffff"/><path d="M28.3743 21.4704C29.006 21.4704 29.5181 20.9521 29.5181 20.3128C29.5181 19.6735 29.006 19.1553 28.3743 19.1553C27.7426 19.1553 27.2305 19.6735 27.2305 20.3128C27.2305 20.9521 27.7426 21.4704 28.3743 21.4704Z" fill="#ffffff"/><path d="M33.3658 21.7767C33.3658 22.416 32.8537 22.9343 32.2219 22.9343C31.5902 22.9343 31.0781 22.416 31.0781 21.7767C31.0781 21.1374 31.5902 20.6191 32.2219 20.6191C32.8537 20.6191 33.3658 21.1374 33.3658 21.7767Z" fill="#ffffff"/><path d="M23.6516 20.7761C24.2833 20.7761 24.7955 20.2578 24.7955 19.6185C24.7955 18.9792 24.2833 18.4609 23.6516 18.4609C23.0199 18.4609 22.5078 18.9792 22.5078 19.6185C22.5078 20.2578 23.0199 20.7761 23.6516 20.7761Z" fill="#ffffff"/><path d="M27.2303 22.3931C27.2303 22.9252 26.8041 23.3565 26.2783 23.3565C25.7526 23.3565 25.3264 22.9252 25.3264 22.3931C25.3264 21.8611 25.7526 21.4297 26.2783 21.4297C26.8041 21.4297 27.2303 21.8611 27.2303 22.3931Z" fill="#ffffff"/><path d="M27.9157 26.0185C28.3783 26.0185 28.7533 25.639 28.7533 25.1709C28.7533 24.7027 28.3783 24.3232 27.9157 24.3232C27.4531 24.3232 27.0781 24.7027 27.0781 25.1709C27.0781 25.639 27.4531 26.0185 27.9157 26.0185Z" fill="#ffffff"/><path d="M26.5855 25.8625C26.5855 26.2461 26.2782 26.557 25.8992 26.557C25.5202 26.557 25.2129 26.2461 25.2129 25.8625C25.2129 25.4789 25.5202 25.168 25.8992 25.168C26.2782 25.168 26.5855 25.4789 26.5855 25.8625Z" fill="#ffffff"/><path d="M24.1091 24.5517C24.5716 24.5517 24.9466 24.1722 24.9466 23.7041C24.9466 23.2359 24.5716 22.8564 24.1091 22.8564C23.6465 22.8564 23.2715 23.2359 23.2715 23.7041C23.2715 24.1722 23.6465 24.5517 24.1091 24.5517Z" fill="#ffffff"/><path d="M22.4705 21.7397C22.4705 22.2717 22.0443 22.703 21.5186 22.703C20.9928 22.703 20.5666 22.2717 20.5666 21.7397C20.5666 21.2076 20.9928 20.7763 21.5186 20.7763C22.0443 20.7763 22.4705 21.2076 22.4705 21.7397Z" fill="#ffffff"/><path d="M21.4813 15.4551C22.007 15.4551 22.4332 15.0238 22.4332 14.4917C22.4332 13.9596 22.007 13.5283 21.4813 13.5283C20.9555 13.5283 20.5293 13.9596 20.5293 14.4917C20.5293 15.0238 20.9555 15.4551 21.4813 15.4551Z" fill="#ffffff"/><path d="M22.7357 11.2168C22.7357 11.6849 22.3607 12.0644 21.8981 12.0644C21.4355 12.0644 21.0605 11.6849 21.0605 11.2168C21.0605 10.7486 21.4355 10.3691 21.8981 10.3691C22.3607 10.3691 22.7357 10.7486 22.7357 11.2168Z" fill="#ffffff"/><path d="M22.8132 9.29043C23.1923 9.29043 23.4995 8.97948 23.4995 8.5959C23.4995 8.21232 23.1923 7.90137 22.8132 7.90137C22.4342 7.90137 22.127 8.21232 22.127 8.5959C22.127 8.97948 22.4342 9.29043 22.8132 9.29043Z" fill="#ffffff"/><path d="M22.054 7.13181C22.054 7.59994 21.6791 7.97944 21.2165 7.97944C20.7539 7.97944 20.3789 7.59994 20.3789 7.13181C20.3789 6.66368 20.7539 6.28418 21.2165 6.28418C21.6791 6.28418 22.054 6.66368 22.054 7.13181Z" fill="#ffffff"/><path d="M30.0906 24.8242C30.6164 24.8242 31.0426 24.3929 31.0426 23.8608C31.0426 23.3288 30.6164 22.8975 30.0906 22.8975C29.5649 22.8975 29.1387 23.3288 29.1387 23.8608C29.1387 24.3929 29.5649 24.8242 30.0906 24.8242Z" fill="#ffffff"/><path d="M19.9937 5.896C19.9937 6.42807 19.5675 6.85939 19.0418 6.85939C18.516 6.85939 18.0898 6.42807 18.0898 5.896C18.0898 5.36394 18.516 4.93262 19.0418 4.93262C19.5675 4.93262 19.9937 5.36394 19.9937 5.896Z" fill="#ffffff"/><path d="M19.6921 10.9445C20.2179 10.9445 20.6441 10.5132 20.6441 9.98113C20.6441 9.44906 20.2179 9.01774 19.6921 9.01774C19.1664 9.01774 18.7402 9.44906 18.7402 9.98113C18.7402 10.5132 19.1664 10.9445 19.6921 10.9445Z" fill="#ffffff"/><path d="M19.7701 13.682C19.7701 14.3213 19.258 14.8395 18.6262 14.8395C17.9945 14.8395 17.4824 14.3213 17.4824 13.682C17.4824 13.0427 17.9945 12.5244 18.6262 12.5244C19.258 12.5244 19.7701 13.0427 19.7701 13.682Z" fill="#ffffff"/><path d="M15.1582 14.8395C15.8938 14.8395 16.4902 14.236 16.4902 13.4915C16.4902 12.7471 15.8938 12.1436 15.1582 12.1436C14.4225 12.1436 13.8262 12.7471 13.8262 13.4915C13.8262 14.236 14.4225 14.8395 15.1582 14.8395Z" fill="#ffffff"/><path d="M12.6454 14.2228C12.6454 15.0745 11.9631 15.765 11.1215 15.765C10.2799 15.765 9.59766 15.0745 9.59766 14.2228C9.59766 13.3711 10.2799 12.6807 11.1215 12.6807C11.9631 12.6807 12.6454 13.3711 12.6454 14.2228Z" fill="#ffffff"/><path d="M6.70359 17.9609C7.69191 17.9609 8.49311 17.1501 8.49311 16.1499C8.49311 15.1497 7.69191 14.3389 6.70359 14.3389C5.71526 14.3389 4.91406 15.1497 4.91406 16.1499C4.91406 17.1501 5.71526 17.9609 6.70359 17.9609Z" fill="#ffffff"/><path d="M4.26534 19.503C4.26534 20.6949 3.31051 21.6612 2.13267 21.6612C0.954829 21.6612 0 20.6949 0 19.503C0 18.311 0.954829 17.3447 2.13267 17.3447C3.31051 17.3447 4.26534 18.311 4.26534 19.503Z" fill="#ffffff"/><path d="M4.91473 13.4501C5.90306 13.4501 6.70426 12.6392 6.70426 11.639C6.70426 10.6388 5.90306 9.82802 4.91473 9.82802C3.92641 9.82802 3.12521 10.6388 3.12521 11.639C3.12521 12.6392 3.92641 13.4501 4.91473 13.4501Z" fill="#ffffff"/><path d="M10.8544 9.71208C10.8544 10.5638 10.1721 11.2542 9.3305 11.2542C8.4889 11.2542 7.80664 10.5638 7.80664 9.71208C7.80664 8.86037 8.4889 8.16992 9.3305 8.16992C10.1721 8.16992 10.8544 8.86037 10.8544 9.71208Z" fill="#ffffff"/><path d="M8.68597 7.16929C9.52758 7.16929 10.2098 6.47884 10.2098 5.62712C10.2098 4.77541 9.52758 4.08496 8.68597 4.08496C7.84437 4.08496 7.16211 4.77541 7.16211 5.62712C7.16211 6.47884 7.84437 7.16929 8.68597 7.16929Z" fill="#ffffff"/><path d="M14.0546 4.89487C14.0546 5.63934 13.4583 6.24286 12.7226 6.24286C11.987 6.24286 11.3906 5.63934 11.3906 4.89487C11.3906 4.15039 11.987 3.54688 12.7226 3.54688C13.4583 3.54688 14.0546 4.15039 14.0546 4.89487Z" fill="#ffffff"/><path d="M16.1868 6.24675C16.8185 6.24675 17.3306 5.7285 17.3306 5.0892C17.3306 4.4499 16.8185 3.93164 16.1868 3.93164C15.5551 3.93164 15.043 4.4499 15.043 5.0892C15.043 5.7285 15.5551 6.24675 16.1868 6.24675Z" fill="#ffffff"/><path d="M17.9771 9.17416C17.9771 9.81346 17.465 10.3317 16.8333 10.3317C16.2016 10.3317 15.6895 9.81346 15.6895 9.17416C15.6895 8.53486 16.2016 8.0166 16.8333 8.0166C17.465 8.0166 17.9771 8.53486 17.9771 9.17416Z" fill="#ffffff"/><path d="M13.3672 10.3659C14.1028 10.3659 14.6991 9.76239 14.6991 9.01791C14.6991 8.27344 14.1028 7.66992 13.3672 7.66992C12.6315 7.66992 12.0352 8.27344 12.0352 9.01791C12.0352 9.76239 12.6315 10.3659 13.3672 10.3659Z" fill="#ffffff"/><path d="M10.2827 19.9289C10.2827 20.3125 9.97548 20.6234 9.59645 20.6234C9.21742 20.6234 8.91016 20.3125 8.91016 19.9289C8.91016 19.5453 9.21742 19.2344 9.59645 19.2344C9.97548 19.2344 10.2827 19.5453 10.2827 19.9289Z" fill="#ffffff"/><path d="M12.3376 20.2724C12.8001 20.2724 13.1751 19.8929 13.1751 19.4248C13.1751 18.9566 12.8001 18.5771 12.3376 18.5771C11.875 18.5771 11.5 18.9566 11.5 19.4248C11.5 19.8929 11.875 20.2724 12.3376 20.2724Z" fill="#ffffff"/><path d="M16.3004 18.1548C16.3004 18.6869 15.8742 19.1182 15.3484 19.1182C14.8227 19.1182 14.3965 18.6869 14.3965 18.1548C14.3965 17.6227 14.8227 17.1914 15.3484 17.1914C15.8742 17.1914 16.3004 17.6227 16.3004 18.1548Z" fill="#ffffff"/><path d="M16.0716 22.2028C16.7033 22.2028 17.2154 21.6846 17.2154 21.0453C17.2154 20.406 16.7033 19.8877 16.0716 19.8877C15.4398 19.8877 14.9277 20.406 14.9277 21.0453C14.9277 21.6846 15.4398 22.2028 16.0716 22.2028Z" fill="#ffffff"/><path d="M13.3687 21.9712C13.3687 22.5033 12.9425 22.9346 12.4168 22.9346C11.891 22.9346 11.4648 22.5033 11.4648 21.9712C11.4648 21.4391 11.891 21.0078 12.4168 21.0078C12.9425 21.0078 13.3687 21.4391 13.3687 21.9712Z" fill="#ffffff"/><path d="M9.17937 22.8935C9.64194 22.8935 10.0169 22.514 10.0169 22.0459C10.0169 21.5777 9.64194 21.1982 9.17937 21.1982C8.71679 21.1982 8.3418 21.5777 8.3418 22.0459C8.3418 22.514 8.71679 22.8935 9.17937 22.8935Z" fill="#ffffff"/><path d="M10.1695 24.5923C10.1695 25.1244 9.74333 25.5557 9.21758 25.5557C8.69183 25.5557 8.26562 25.1244 8.26562 24.5923C8.26562 24.0602 8.69183 23.6289 9.21758 23.6289C9.74333 23.6289 10.1695 24.0602 10.1695 24.5923Z" fill="#ffffff"/><path d="M13.1028 26.0563C13.7345 26.0563 14.2466 25.5381 14.2466 24.8988C14.2466 24.2595 13.7345 23.7412 13.1028 23.7412C12.4711 23.7412 11.959 24.2595 11.959 24.8988C11.959 25.5381 12.4711 26.0563 13.1028 26.0563Z" fill="#ffffff"/><path d="M18.9648 24.2044C18.9648 24.9489 18.3684 25.5524 17.6328 25.5524C16.8971 25.5524 16.3008 24.9489 16.3008 24.2044C16.3008 23.46 16.8971 22.8564 17.6328 22.8564C18.3684 22.8564 18.9648 23.46 18.9648 24.2044Z" fill="#ffffff"/><path d="M20.3012 28.9095C21.1428 28.9095 21.8251 28.2191 21.8251 27.3674C21.8251 26.5156 21.1428 25.8252 20.3012 25.8252C19.4596 25.8252 18.7773 26.5156 18.7773 27.3674C18.7773 28.2191 19.4596 28.9095 20.3012 28.9095Z" fill="#ffffff"/><path d="M16.0312 28.0199C16.0312 28.7643 15.4348 29.3679 14.6992 29.3679C13.9635 29.3679 13.3672 28.7643 13.3672 28.0199C13.3672 27.2754 13.9635 26.6719 14.6992 26.6719C15.4348 26.6719 16.0312 27.2754 16.0312 28.0199Z" fill="#ffffff"/><path d="M11.541 31.9899C12.2766 31.9899 12.873 31.3864 12.873 30.6419C12.873 29.8975 12.2766 29.2939 11.541 29.2939C10.8053 29.2939 10.209 29.8975 10.209 30.6419C10.209 31.3864 10.8053 31.9899 11.541 31.9899Z" fill="#ffffff"/><path d="M15.6923 33.842C15.6923 34.6937 15.01 35.3841 14.1684 35.3841C13.3268 35.3841 12.6445 34.6937 12.6445 33.842C12.6445 32.9903 13.3268 32.2998 14.1684 32.2998C15.01 32.2998 15.6923 32.9903 15.6923 33.842Z" fill="#ffffff"/><path d="M21.1762 36C22.1646 36 22.9658 35.1891 22.9658 34.1889C22.9658 33.1887 22.1646 32.3779 21.1762 32.3779C20.1879 32.3779 19.3867 33.1887 19.3867 34.1889C19.3867 35.1891 20.1879 36 21.1762 36Z" fill="#ffffff"/><path d="M18.8544 31.2209C18.8544 32.0726 18.1721 32.763 17.3305 32.763C16.4889 32.763 15.8066 32.0726 15.8066 31.2209C15.8066 30.3692 16.4889 29.6787 17.3305 29.6787C18.1721 29.6787 18.8544 30.3692 18.8544 31.2209Z" fill="#ffffff"/><path d="M24.1079 32.1464C25.0962 32.1464 25.8974 31.3356 25.8974 30.3354C25.8974 29.3352 25.0962 28.5244 24.1079 28.5244C23.1196 28.5244 22.3184 29.3352 22.3184 30.3354C22.3184 31.3356 23.1196 32.1464 24.1079 32.1464Z" fill="#ffffff"/><path d="M11.0845 27.5199C11.0845 28.1592 10.5724 28.6774 9.94069 28.6774C9.30898 28.6774 8.79688 28.1592 8.79688 27.5199C8.79688 26.8806 9.30898 26.3623 9.94069 26.3623C10.5724 26.3623 11.0845 26.8806 11.0845 27.5199Z" fill="#ffffff"/></g></g><defs><clipPath id="clip0_2151_6607"><rect width="137" height="36" fill="#ffffff"/></clipPath></defs></svg>
